HIERARCHY
ROOT Hips
{
	OFFSET 0.000000 0.000000 0.000000
	CHANNELS 6 Xposition Yposition Zposition Zrotation Yrotation Xrotation 
	JOINT LHipJoint
	{
		OFFSET 0.000000 0.000000 0.000000
		CHANNELS 3 Zrotation Yrotation Xrotation
		JOINT LeftUpLeg
		{
			OFFSET 1.363060 -1.794630 0.839290
			CHANNELS 3 Zrotation Yrotation Xrotation
			JOINT LeftLeg
			{
				OFFSET 2.448110 -6.726130 0.000000
				CHANNELS 3 Zrotation Yrotation Xrotation
				JOINT LeftFoot
				{
					OFFSET 2.562200 -7.039590 0.000000
					CHANNELS 3 Zrotation Yrotation Xrotation
					JOINT LeftToeBase
					{
						OFFSET 0.157640 -0.433110 2.322550
						CHANNELS 3 Zrotation Yrotation Xrotation
						End Site
						{
							OFFSET 0.000000 0.000000 0.000000
						}
					}
				}
			}
		}
	}
	JOINT RHipJoint
	{
		OFFSET 0.000000 0.000000 0.000000
		CHANNELS 3 Zrotation Yrotation Xrotation
		JOINT RightUpLeg
		{
			OFFSET -1.305520 -1.794630 0.839290
			CHANNELS 3 Zrotation Yrotation Xrotation
			JOINT RightLeg
			{
				OFFSET -2.542530 -6.985550 0.000000
				CHANNELS 3 Zrotation Yrotation Xrotation
				JOINT RightFoot
				{
					OFFSET -2.568260 -7.056230 0.000000
					CHANNELS 3 Zrotation Yrotation Xrotation
					JOINT RightToeBase
					{
						OFFSET -0.164730 -0.452590 2.363150
						CHANNELS 3 Zrotation Yrotation Xrotation
						End Site
						{
							OFFSET 0.000000 0.000000 0.000000
						}
					}
				}
			}
		}
	}
	JOINT LowerBack
	{
		OFFSET 0.000000 0.000000 0.000000
		CHANNELS 3 Zrotation Yrotation Xrotation
		JOINT Spine
		{
			OFFSET 0.028270 2.035590 -0.193380
			CHANNELS 3 Zrotation Yrotation Xrotation
			JOINT Spine1
			{
				OFFSET 0.056720 2.048850 -0.042750
				CHANNELS 3 Zrotation Yrotation Xrotation
				JOINT Neck
				{
					OFFSET 0.000000 0.000000 0.000000
					CHANNELS 3 Zrotation Yrotation Xrotation
					JOINT Neck1
					{
						OFFSET -0.054170 1.746240 0.172020
						CHANNELS 3 Zrotation Yrotation Xrotation
						JOINT Head
						{
							OFFSET 0.104070 1.761360 -0.123970
							CHANNELS 3 Zrotation Yrotation Xrotation
							End Site
							{
								OFFSET 0.000000 0.000000 0.000000
							}
						}
					}
				}
				JOINT LeftShoulder
				{
					OFFSET 0.000000 0.000000 0.000000
					CHANNELS 3 Zrotation Yrotation Xrotation
					JOINT LeftArm
					{
						OFFSET 3.362410 1.200890 -0.311210
						CHANNELS 3 Zrotation Yrotation Xrotation
						JOINT LeftForeArm
						{
							OFFSET 4.983000 -0.000000 -0.000000
							CHANNELS 3 Zrotation Yrotation Xrotation
							JOINT LeftHand
							{
								OFFSET 3.483560 -0.000000 -0.000000
								CHANNELS 3 Zrotation Yrotation Xrotation
								JOINT LeftFingerBase
								{
									OFFSET 0.000000 0.000000 0.000000
									CHANNELS 3 Zrotation Yrotation Xrotation
									JOINT LeftHandIndex1
									{
										OFFSET 0.715260 -0.000000 -0.000000
										CHANNELS 3 Zrotation Yrotation Xrotation
										End Site
										{
											OFFSET 0.000000 0.000000 0.000000
										}
									}
								}
								JOINT LThumb
								{
									OFFSET 0.000000 0.000000 0.000000
									CHANNELS 3 Zrotation Yrotation Xrotation
									End Site
									{
										OFFSET 0.000000 0.000000 0.000000
									}
								}
							}
						}
					}
				}
				JOINT RightShoulder
				{
					OFFSET 0.000000 0.000000 0.000000
					CHANNELS 3 Zrotation Yrotation Xrotation
					JOINT RightArm
					{
						OFFSET -3.136600 1.374050 -0.404650
						CHANNELS 3 Zrotation Yrotation Xrotation
						JOINT RightForeArm
						{
							OFFSET -5.241900 -0.000000 -0.000000
							CHANNELS 3 Zrotation Yrotation Xrotation
							JOINT RightHand
							{
								OFFSET -3.444170 -0.000000 -0.000000
								CHANNELS 3 Zrotation Yrotation Xrotation
								JOINT RightFingerBase
								{
									OFFSET 0.000000 0.000000 0.000000
									CHANNELS 3 Zrotation Yrotation Xrotation
									JOINT RightHandIndex1
									{
										OFFSET -0.622530 -0.000000 -0.000000
										CHANNELS 3 Zrotation Yrotation Xrotation
										End Site
										{
											OFFSET 0.000000 0.000000 0.000000
										}
									}
								}
								JOINT RThumb
								{
									OFFSET 0.000000 0.000000 0.000000
									CHANNELS 3 Zrotation Yrotation Xrotation
									End Site
									{
										OFFSET 0.000000 0.000000 0.000000
									}
								}
							}
						}
					}
				}
			}
		}
	}
}
MOTION
Frames: 8
Frame Time: 0.008333
1.197124 18.009020 -0.716406 -6.682511 5.284481 0.369745 -4.719736 -2.441437 -0.777542 -1.511658 -4.379967 -24.209196 2.549757 11.673132 32.802515 -2.110378 9.633829 -0.988572 1.059400 -6.544100 -18.371500 4.049443 1.859804 0.582291 28.252712 -1.983959 -4.499475 -0.273802 -7.014281 17.949105 2.658839 -13.187603 -3.040499 -0.001200 0.223500 -0.614200 6.630793 0.669792 4.430546 3.664481 1.214073 -1.027608 -0.427638 0.560110 -1.897934 2.561674 -0.700141 -14.842557 2.226826 -1.406219 15.895472 -2.458300 -0.092200 9.750400 3.485948 -0.943797 0.241611 -89.274960 11.333660 28.427452 21.849636 -32.242715 -5.781994 0.195233 0.451777 -12.449096 12.793939 -0.197430 -0.134800 -7.125000 0.000000 0.000000 -10.964000 29.274100 4.273700 -2.966452 1.813497 0.235660 87.328425 -4.655796 13.165003 -16.806059 26.779584 -3.878640 0.086119 -0.610759 -8.789111 -16.927217 -5.217071 1.389200 7.125000 0.000000 0.000000 8.042200 -34.668900 2.056600 
1.196627 18.013491 -0.680337 -6.818372 5.308597 0.319678 -4.711890 -2.476150 -0.840356 -1.435396 -4.416869 -24.687659 2.465861 11.551771 32.411038 -2.069304 9.491499 -0.842150 1.058600 -6.541900 -18.365000 4.050912 1.860052 0.608961 28.431960 -2.096660 -4.137592 -0.223548 -6.851247 17.474221 2.678458 -13.288793 -2.866571 -0.001600 0.262100 -0.720100 6.774287 0.738254 4.513042 3.679906 1.317256 -1.015831 -0.496501 0.613418 -1.920180 2.595073 -0.706471 -14.817332 2.209605 -1.429220 15.807957 -2.473200 -0.106700 9.712200 3.484986 -0.945531 0.244025 -89.254566 11.476534 28.406018 21.891677 -32.287576 -5.802276 0.196216 0.451270 -12.480276 12.822107 -0.248508 -0.146300 -7.125000 0.000000 0.000000 -10.937800 29.223600 4.276500 -2.964911 1.809469 0.233183 87.327375 -4.516999 13.116195 -16.896207 26.895276 -3.916927 0.087388 -0.612070 -8.824194 -16.975024 -5.262309 1.406600 7.125000 0.000000 0.000000 8.007700 -34.716100 2.038300 
1.196229 18.017267 -0.644766 -6.962756 5.330859 0.266841 -4.701879 -2.509700 -0.902761 -1.351437 -4.463934 -25.155253 2.391589 11.441762 32.058461 -2.027985 9.349626 -0.695668 1.058100 -6.540400 -18.360600 4.051298 1.860003 0.635223 28.620364 -2.209677 -3.774702 -0.174842 -6.687839 17.000049 2.696074 -13.383685 -2.691521 -0.002200 0.299500 -0.823000 6.922482 0.805127 4.610927 3.700981 1.421043 -1.009276 -0.561916 0.666526 -1.956262 2.620285 -0.712008 -14.786678 2.193093 -1.448581 15.724517 -2.486000 -0.119900 9.674700 3.483691 -0.947360 0.246613 -89.240676 11.639387 28.384287 21.942013 -32.341708 -5.826710 0.197462 0.449931 -12.513209 12.847064 -0.333555 -0.165100 -7.125000 0.000000 0.000000 -10.910600 29.139900 4.287600 -2.962878 1.805908 0.230896 87.317979 -4.389715 13.082393 -16.991672 27.017271 -3.957811 0.088899 -0.613774 -8.883173 -17.045607 -5.334071 1.434100 7.125000 0.000000 0.000000 7.957700 -34.791100 2.010800 
1.196428 18.021440 -0.609293 -7.085540 5.355210 0.221579 -4.692542 -2.542922 -0.964800 -1.292297 -4.524869 -25.615282 2.325666 11.344017 31.746222 -1.988600 9.215838 -0.566509 1.061800 -6.551400 -18.393000 4.051563 1.860596 0.661636 28.777895 -2.341563 -3.425691 -0.127895 -6.525150 16.530743 2.706786 -13.452316 -2.512423 -0.002700 0.333200 -0.915400 7.050333 0.868764 4.691037 3.717915 1.517736 -0.996839 -0.619722 0.715762 -1.975865 2.601825 -0.740972 -14.771455 2.210875 -1.487986 15.691416 -2.480500 -0.139200 9.657700 3.481448 -0.943866 0.248340 -89.227692 11.804796 28.365011 21.999149 -32.403413 -5.854590 0.198906 0.448453 -12.558188 12.877466 -0.429625 -0.186500 -7.125000 0.000000 0.000000 -10.878300 29.045500 4.299300 -2.961678 1.806488 0.228893 87.299540 -4.242316 13.062749 -17.076631 27.126191 -3.994953 0.090569 -0.615594 -8.968811 -17.126842 -5.432213 1.470800 7.125000 0.000000 0.000000 7.902200 -34.893800 1.976600 
1.196925 18.025614 -0.574218 -7.181354 5.381757 0.184302 -4.684166 -2.575658 -1.026429 -1.260546 -4.598838 -26.070564 2.268302 11.259126 31.475111 -1.956794 9.108367 -0.457143 1.068400 -6.571100 -18.450700 4.052038 1.861614 0.687937 28.903147 -2.476966 -3.087554 -0.082848 -6.364075 16.068424 2.715226 -13.512102 -2.332725 -0.003200 0.362800 -0.996900 7.146358 0.929416 4.769527 3.728214 1.609127 -0.984848 -0.666635 0.761894 -1.994812 2.570925 -0.779288 -14.788905 2.246966 -1.534458 15.707855 -2.466900 -0.157800 9.664900 3.478674 -0.935954 0.249249 -89.217778 11.967740 28.335389 22.056487 -32.465339 -5.882620 0.200052 0.447746 -12.589215 12.909645 -0.493218 -0.201000 -7.125000 0.000000 0.000000 -10.847800 28.982700 4.303400 -2.961315 1.810852 0.227104 87.280261 -4.080466 13.040840 -17.145937 27.215746 -4.025601 0.091743 -0.617029 -9.051555 -17.206285 -5.505465 1.500000 7.125000 0.000000 0.000000 7.845600 -34.971200 1.947300 
1.197919 18.030383 -0.539043 -7.260589 5.417117 0.157350 -4.676129 -2.608456 -1.087878 -1.249949 -4.683103 -26.522954 2.219873 11.187484 31.247035 -1.930444 9.019409 -0.367801 1.071300 -6.579800 -18.476300 4.052251 1.862835 0.714568 29.003885 -2.637469 -2.771302 -0.039599 -6.204098 15.611450 2.717042 -13.547002 -2.148478 -0.003700 0.390800 -1.073700 7.226975 0.989254 4.829128 3.734048 1.696332 -0.973545 -0.709913 0.806574 -2.004514 2.544352 -0.814520 -14.808928 2.280397 -1.579474 15.699745 -2.455100 -0.177300 9.663800 3.476612 -0.929564 0.250299 -89.213351 12.112359 28.293459 22.095788 -32.507070 -5.901744 0.201089 0.447429 -12.594937 12.941426 -0.532992 -0.210300 -7.125000 0.000000 0.000000 -10.820000 28.943400 4.302300 -2.961598 1.813445 0.224840 87.259326 -3.905972 12.995517 -17.187134 27.269438 -4.043975 0.091758 -0.617211 -9.096029 -17.245277 -5.485977 1.497400 7.125000 0.000000 0.000000 7.811500 -34.952400 1.942300 
1.199012 18.035252 -0.503869 -7.345236 5.456641 0.135544 -4.666234 -2.640701 -1.149728 -1.235843 -4.775297 -26.975447 2.182713 11.130113 31.065233 -1.916571 8.973609 -0.286469 1.072700 -6.583700 -18.487800 4.051583 1.863350 0.740932 29.110894 -2.798455 -2.463414 0.002436 -6.043365 15.153779 2.718220 -13.580331 -1.964806 -0.004200 0.419600 -1.152900 7.306396 1.048982 4.870686 3.742386 1.780420 -0.955376 -0.749743 0.850722 -1.996734 2.547752 -0.831647 -14.825353 2.288778 -1.608932 15.643599 -2.456300 -0.193200 9.644900 3.475798 -0.927421 0.251942 -89.219145 12.223948 28.224656 22.114970 -32.527055 -5.911169 0.202033 0.447542 -12.576459 12.974543 -0.546517 -0.214000 -7.125000 0.000000 0.000000 -10.793700 28.930000 4.295000 -2.961986 1.811327 0.221762 87.236641 -3.714035 12.940523 -17.206582 27.295002 -4.052380 0.090512 -0.616202 -9.098935 -17.251790 -5.365321 1.461000 7.125000 0.000000 0.000000 7.792600 -34.828900 1.961200 
1.200105 18.040120 -0.468893 -7.434936 5.498661 0.118618 -4.653941 -2.672246 -1.211308 -1.221486 -4.863989 -27.431701 2.156710 11.087863 30.932543 -1.906300 8.940284 -0.211586 1.068300 -6.570800 -18.449800 4.049995 1.863466 0.767068 29.224018 -2.964182 -2.162116 0.043759 -5.879831 14.689164 2.718339 -13.611496 -1.772759 -0.004800 0.448200 -1.231500 7.383789 1.108570 4.915837 3.753582 1.865079 -0.944386 -0.785827 0.895272 -1.999926 2.539330 -0.852786 -14.809813 2.305891 -1.645322 15.542672 -2.453000 -0.214700 9.603100 3.475298 -0.927899 0.254071 -89.233026 12.336970 28.140525 22.128759 -32.541117 -5.917858 0.202232 0.448725 -12.546943 12.998487 -0.510817 -0.206600 -7.125000 0.000000 0.000000 -10.779100 28.964800 4.279900 -2.962273 1.807162 0.218485 87.211300 -3.532730 12.882724 -17.217282 27.309173 -4.056468 0.089090 -0.614596 -9.077527 -17.220727 -5.211595 1.411300 7.125000 0.000000 0.000000 7.800800 -34.670400 1.993600 
